<svg xmlns="http://www.w3.org/2000/svg" width="736" height="500" viewBox="0 0 736 500"><defs><radialGradient id="back"><stop stop-color="#142938"/><stop offset="1" stop-color="#0a1420"/></radialGradient></defs><rect width="100%" height="100%" fill="url(#back)"/><rect x="296.000" y="310.500" width="212.000" height="84.000" rx="42.000" fill="none" fill-opacity=".025" stroke="#b7a4e8" stroke-opacity="0.16" stroke-width="1" stroke-dasharray="3 7"/><circle cx="280.000" cy="180.000" r="8" fill="none" stroke="#eedbb6" stroke-width="1.2" opacity="0.18" stroke-linejoin="round"/><rect x="326.000" y="344.500" width="16" height="16" rx="2.5" fill="none" stroke="#83d6d1" stroke-width="1.2" opacity="0.18" stroke-linejoin="round"/><path d="M470.000 343.300L478.000 358.900L462.000 358.900Z" fill="none" stroke="#b7a4e8" stroke-width="1.2" opacity="0.18" stroke-linejoin="round"/><rect x="228.000" y="310.500" width="348.000" height="84.000" rx="42.000" fill="#83d6d1" fill-opacity=".025" stroke="#83d6d1" stroke-opacity="0.5" stroke-width="1.2" /><path d="M391.000 310.500h22" stroke="#eedbb6" stroke-opacity=".8" stroke-width="2.8" stroke-linecap="round"/><path d="M396.000 305.500h12" stroke="#eedbb6" stroke-opacity=".28" stroke-width="1" stroke-linecap="round"/><svg x="244" y="330.5" width="44" height="44" viewBox="0 0 48 48" aria-hidden="true" xmlns="http://www.w3.org/2000/svg"><circle cx="24.000" cy="24.000" r="11" fill="#eedbb6" stroke="#eedbb6" stroke-width="0.7" opacity="1" stroke-linejoin="round"/></svg><svg x="380" y="330.5" width="44" height="44" viewBox="0 0 48 48" aria-hidden="true" xmlns="http://www.w3.org/2000/svg"><rect x="13.000" y="13.000" width="22" height="22" rx="2.5" fill="#83d6d1" stroke="#83d6d1" stroke-width="0.7" opacity="1" stroke-linejoin="round"/></svg><svg x="516" y="330.5" width="44" height="44" viewBox="0 0 48 48" aria-hidden="true" xmlns="http://www.w3.org/2000/svg"><path d="M24.000 11.350L35.000 32.800L13.000 32.800Z" fill="#b7a4e8" stroke="#b7a4e8" stroke-width="0.7" opacity="1" stroke-linejoin="round"/></svg></svg>