<svg xmlns="http://www.w3.org/2000/svg" width="736" height="702" viewBox="0 0 736 702"><defs><radialGradient id="back"><stop stop-color="#142938"/><stop offset="1" stop-color="#0a1420"/></radialGradient></defs><rect width="100%" height="100%" fill="url(#back)"/><path d="M368 66 C368 123 184 123 184 180" fill="none" stroke="#648896" stroke-opacity=".5" stroke-width="1.2" /><path d="M184 180 C184 294 368 294 368 408" fill="none" stroke="#b7a4e8" stroke-opacity=".28" stroke-width="1.2" stroke-dasharray="2 7"/><path d="M368 66 C368 123 368 123 368 180" fill="none" stroke="#648896" stroke-opacity=".5" stroke-width="1.2" /><path d="M368 180 C368 351 368 351 368 522" fill="none" stroke="#b7a4e8" stroke-opacity=".28" stroke-width="1.2" stroke-dasharray="2 7"/><path d="M368 180 C368 237 245.33333333333334 237 245.33333333333334 294" fill="none" stroke="#648896" stroke-opacity=".5" stroke-width="1.2" /><path d="M245.33333333333334 294 C245.33333333333334 294 490.6666666666667 294 490.6666666666667 294" fill="none" stroke="#b7a4e8" stroke-opacity=".28" stroke-width="1.2" stroke-dasharray="2 7"/><path d="M368 180 C368 237 490.6666666666667 237 490.6666666666667 294" fill="none" stroke="#648896" stroke-opacity=".5" stroke-width="1.2" /><path d="M245.33333333333334 294 C245.33333333333334 351 368 351 368 408" fill="none" stroke="#648896" stroke-opacity=".5" stroke-width="1.2" /><path d="M490.6666666666667 294 C490.6666666666667 351 368 351 368 408" fill="none" stroke="#648896" stroke-opacity=".5" stroke-width="1.2" /><path d="M368 408 C368 522 368 522 368 636" fill="none" stroke="#b7a4e8" stroke-opacity=".28" stroke-width="1.2" stroke-dasharray="2 7"/><path d="M368 408 C368 465 368 465 368 522" fill="none" stroke="#648896" stroke-opacity=".5" stroke-width="1.2" /><path d="M368 522 C368 579 368 579 368 636" fill="none" stroke="#648896" stroke-opacity=".5" stroke-width="1.2" /><path d="M368 180 C368 408 368 408 368 636" fill="none" stroke="#648896" stroke-opacity=".5" stroke-width="1.2" /><path d="M368 66 C368 123 552 123 552 180" fill="none" stroke="#648896" stroke-opacity=".5" stroke-width="1.2" /><path d="M552 180 C552 237 245.33333333333334 237 245.33333333333334 294" fill="none" stroke="#b7a4e8" stroke-opacity=".28" stroke-width="1.2" stroke-dasharray="2 7"/><circle cx="368" cy="66" r="40" fill="#102230" stroke="#648896" stroke-opacity=".5"/><svg x="346" y="44" width="44" height="44" xmlns="http://www.w3.org/2000/svg" viewBox="0 0 48 48" fill="none" aria-hidden="true"><path d="M12 12v22M36 12v22" stroke="#648896"/><circle cx="12" cy="10" r="4" fill="#eedbb6"/><circle cx="36" cy="10" r="4" fill="#eedbb6"/><circle cx="12" cy="36" r="7" stroke="#83d6d1"/><circle cx="36" cy="36" r="7" stroke="#83d6d1"/></svg>
<circle cx="184" cy="180" r="40" fill="#102230" stroke="#648896" stroke-opacity=".5"/><svg x="162" y="158" width="44" height="44" xmlns="http://www.w3.org/2000/svg" viewBox="0 0 48 48" fill="none" aria-hidden="true"><circle cx="17" cy="24" r="15" fill="#83d6d1" fill-opacity=".06" stroke="#83d6d1"/><circle cx="31" cy="24" r="15" fill="#b7a4e8" fill-opacity=".06" stroke="#b7a4e8"/><circle cx="24" cy="24" r="3" fill="#eedbb6"/></svg>
<circle cx="368" cy="180" r="40" fill="#102230" stroke="#648896" stroke-opacity=".5"/><svg x="346" y="158" width="44" height="44" xmlns="http://www.w3.org/2000/svg" viewBox="0 0 48 48" fill="none" aria-hidden="true"><path d="M9 4v8c0 7 30 3 30 12v20M39 4v8c0 7-30 3-30 12v20M24 4v40" stroke="#83d6d1" stroke-width="1.4"/><circle cx="9" cy="4" r="3" fill="#eedbb6"/><circle cx="39" cy="44" r="3" fill="#eedbb6"/></svg>
<circle cx="552" cy="180" r="40" fill="#102230" stroke="#648896" stroke-opacity=".5"/><svg x="530" y="158" width="44" height="44" xmlns="http://www.w3.org/2000/svg" viewBox="0 0 48 48" fill="none" aria-hidden="true"><path d="m24 5 17 10v20L24 45 7 35V15ZM7 15l17 10 17-10M24 25v20" stroke="#83d6d1" stroke-width="1.2"/><circle cx="24" cy="25" r="3" fill="#eedbb6"/></svg>
<circle cx="245.33333333333334" cy="294" r="40" fill="#102230" stroke="#648896" stroke-opacity=".5"/><svg x="223.33333333333334" y="272" width="44" height="44" xmlns="http://www.w3.org/2000/svg" viewBox="0 0 48 48" fill="none" aria-hidden="true"><circle cx="16" cy="24" r="12" stroke="#83d6d1"/><circle cx="35" cy="24" r="8" stroke="#b7a4e8"/><circle cx="16" cy="12" r="3" fill="#eedbb6"/><rect x="32" y="29" width="6" height="6" rx="1" fill="#eedbb6"/></svg>
<circle cx="490.6666666666667" cy="294" r="40" fill="#102230" stroke="#648896" stroke-opacity=".5"/><svg x="468.6666666666667" y="272" width="44" height="44" xmlns="http://www.w3.org/2000/svg" viewBox="0 0 48 48" fill="none" aria-hidden="true"><path d="M9 4v8c0 5 30 5 30 12s-30 7-30 12v8M39 4v8c0 5-30 5-30 12s30 7 30 12v8" stroke="#83d6d1" stroke-width="1.4"/><circle cx="9" cy="4" r="3" fill="#eedbb6"/><circle cx="9" cy="44" r="4" stroke="#eedbb6"/></svg>
<circle cx="368" cy="408" r="40" fill="#102230" stroke="#648896" stroke-opacity=".5"/><svg x="346" y="386" width="44" height="44" xmlns="http://www.w3.org/2000/svg" viewBox="0 0 48 48" fill="none" aria-hidden="true"><rect x="3" y="8" width="16" height="11" rx="3" stroke="#83d6d1"/><rect x="3" y="28" width="16" height="11" rx="3" stroke="#b7a4e8"/><path d="M11 19v9M19 24h9" stroke="#648896"/><rect x="29" y="9" width="16" height="30" rx="5" stroke="#eedbb6"/></svg>
<circle cx="368" cy="522" r="40" fill="#102230" stroke="#648896" stroke-opacity=".5"/><svg x="346" y="500" width="44" height="44" xmlns="http://www.w3.org/2000/svg" viewBox="0 0 48 48" fill="none" aria-hidden="true"><path d="M7 12 20 29 7 38M7 12v26" stroke="#648896"/><circle cx="7" cy="12" r="3" fill="#eedbb6"/><rect x="17" y="26" width="6" height="6" fill="#83d6d1"/><path d="m7 35 3 6H4Z" fill="#b7a4e8"/><path d="M30 11v28M37 11v28M44 11v28M28 15h18M28 25h18M28 35h18" stroke="#648896"/><circle cx="37" cy="15" r="2.6" fill="#eedbb6"/><circle cx="44" cy="25" r="2.6" fill="#83d6d1"/></svg>
<circle cx="368" cy="636" r="40" fill="#102230" stroke="#648896" stroke-opacity=".5"/><svg x="346" y="614" width="44" height="44" xmlns="http://www.w3.org/2000/svg" viewBox="0 0 48 48" fill="none" aria-hidden="true"><path d="M6 24 24 9 42 24 24 39Z" stroke="#648896"/><circle cx="6" cy="24" r="4" fill="#eedbb6"/><rect x="21" y="6" width="6" height="6" fill="#83d6d1"/><path d="m24 35 4 7h-8Z" fill="#b7a4e8"/><circle cx="42" cy="24" r="5" stroke="#eedbb6"/></svg>
</svg>