<svg xmlns="http://www.w3.org/2000/svg" width="736" height="540" viewBox="0 0 736 540"><defs><radialGradient id="back"><stop stop-color="#142938"/><stop offset="1" stop-color="#0a1420"/></radialGradient></defs><rect width="100%" height="100%" fill="url(#back)"/><path d="M590.12 221.62 C590.12 308.58 596.16 308.58 596.16 395.54" fill="none" stroke="#eedbb6" stroke-opacity="0.46" stroke-width="1.4"/><path d="M145.88 206.17 C145.88 285.50 139.84 285.50 139.84 364.84" fill="none" stroke="#eedbb6" stroke-opacity="0.46" stroke-width="1.4"/><path d="M368.00 195.10 C368.00 295.35 368.00 295.35 368.00 395.60" fill="none" stroke="#eedbb6" stroke-opacity="0.46" stroke-width="1.4"/><circle cx="596.16" cy="395.54" r="23" fill="none" stroke="#83d6d1" stroke-opacity="0.85" stroke-width="1.4" /><circle cx="596.16" cy="395.54" r="27" fill="none" stroke="#83d6d1" stroke-opacity="0.17" stroke-width="1.4" /><circle cx="596.16" cy="395.54" r="32" fill="none" stroke="#eedbb6" stroke-opacity="0.18" stroke-width="1.4" /><circle cx="139.84" cy="364.84" r="23" fill="none" stroke="#83d6d1" stroke-opacity="0.85" stroke-width="1.4" /><circle cx="139.84" cy="364.84" r="27" fill="none" stroke="#83d6d1" stroke-opacity="0.17" stroke-width="1.4" /><circle cx="139.84" cy="364.84" r="32" fill="none" stroke="#eedbb6" stroke-opacity="0.18" stroke-width="1.4" /><circle cx="368.00" cy="395.60" r="23" fill="none" stroke="#83d6d1" stroke-opacity="0.85" stroke-width="1.4" /><circle cx="368.00" cy="395.60" r="27" fill="none" stroke="#83d6d1" stroke-opacity="0.17" stroke-width="1.4" /><circle cx="368.00" cy="395.60" r="32" fill="none" stroke="#eedbb6" stroke-opacity="0.18" stroke-width="1.4" /><svg x="569.11989824" y="200.6241161977861" width="42" height="42" class="token-art" viewBox="0 0 44 44" aria-hidden="true"><circle cx="22.00" cy="22.00" r="12.00" fill="#eedbb6" stroke="#eedbb6" stroke-width="0.8" opacity="1" stroke-linejoin="round"/><path d="M15 18a8 8 0 0 1 8-4" fill="none" stroke="#ffffff" stroke-opacity=".3" stroke-width="1.5" stroke-linecap="round"/></svg><svg x="124.88010176" y="185.17244303054625" width="42" height="42" class="token-art" viewBox="0 0 44 44" aria-hidden="true"><circle cx="22.00" cy="22.00" r="12.00" fill="#eedbb6" stroke="#eedbb6" stroke-width="0.8" opacity="1" stroke-linejoin="round"/><path d="M15 18a8 8 0 0 1 8-4" fill="none" stroke="#ffffff" stroke-opacity=".3" stroke-width="1.5" stroke-linecap="round"/></svg><svg x="347" y="174.09673119237087" width="42" height="42" class="token-art" viewBox="0 0 44 44" aria-hidden="true"><circle cx="22.00" cy="22.00" r="12.00" fill="#eedbb6" stroke="#eedbb6" stroke-width="0.8" opacity="1" stroke-linejoin="round"/><path d="M15 18a8 8 0 0 1 8-4" fill="none" stroke="#ffffff" stroke-opacity=".3" stroke-width="1.5" stroke-linecap="round"/></svg></svg>