<svg xmlns="http://www.w3.org/2000/svg" width="736" height="500" viewBox="0 0 736 500"><defs><radialGradient id="back"><stop stop-color="#142938"/><stop offset="1" stop-color="#0a1420"/></radialGradient></defs><rect width="100%" height="100%" fill="url(#back)"/><circle cx="511.280" cy="137.000" r="8" fill="#eedbb6" stroke="#eedbb6" stroke-width="0.7" opacity="1" stroke-linejoin="round"/><circle cx="459.280" cy="189.000" r="8" fill="#eedbb6" stroke="#eedbb6" stroke-width="0.7" opacity="1" stroke-linejoin="round"/><rect x="555.280" y="129.000" width="16" height="16" rx="2.5" fill="#83d6d1" stroke="#83d6d1" stroke-width="0.7" opacity="1" stroke-linejoin="round"/><rect x="451.280" y="233.000" width="16" height="16" rx="2.5" fill="#83d6d1" stroke="#83d6d1" stroke-width="0.7" opacity="1" stroke-linejoin="round"/><path d="M615.280 127.800L623.280 143.400L607.280 143.400Z" fill="#b7a4e8" stroke="#b7a4e8" stroke-width="0.7" opacity="1" stroke-linejoin="round"/><path d="M459.280 283.800L467.280 299.400L451.280 299.400Z" fill="#b7a4e8" stroke="#b7a4e8" stroke-width="0.7" opacity="1" stroke-linejoin="round"/><path d="M66.970 98.650C94.300 98.650 121.630 98.650 148.960 98.650" fill="none" stroke="#eedbb6" stroke-opacity="0.9" stroke-width="1.9"/><path d="M148.960 98.650L139.960 102.650L139.960 94.650Z" fill="#eedbb6" fill-opacity="0.9"/><path d="M61.189 113.514C92.548 142.254 123.907 170.994 155.267 199.734" fill="none" stroke="#83d6d1" stroke-opacity="0.9" stroke-width="1.9"/><path d="M155.267 199.734L145.929 196.603L151.334 190.705Z" fill="#83d6d1" fill-opacity="0.9"/><path d="M66.970 215.950C94.300 215.950 121.630 215.950 148.960 215.950" fill="none" stroke="#648896" stroke-opacity="0.3" stroke-width="1.1"/><path d="M148.960 215.950L139.960 219.950L139.960 211.950Z" fill="#648896" fill-opacity="0.3"/><path d="M66.970 333.250C94.300 333.250 121.630 333.250 148.960 333.250" fill="none" stroke="#648896" stroke-opacity="0.3" stroke-width="1.1"/><path d="M148.960 333.250L139.960 337.250L139.960 329.250Z" fill="#648896" fill-opacity="0.3"/><path d="M183.496 117.963C218.816 182.702 254.136 247.442 289.456 312.182" fill="none" stroke="#eedbb6" stroke-opacity="0.9" stroke-width="1.9"/><path d="M289.456 312.182L281.634 306.197L288.657 302.365Z" fill="#eedbb6" fill-opacity="0.9"/><path d="M189.179 230.814C220.538 259.554 251.898 288.294 283.257 317.034" fill="none" stroke="#83d6d1" stroke-opacity="0.9" stroke-width="1.9"/><path d="M283.257 317.034L273.919 313.903L279.325 308.005Z" fill="#83d6d1" fill-opacity="0.9"/><path d="M183.496 313.937C218.816 249.198 254.136 184.458 289.456 119.718" fill="none" stroke="#648896" stroke-opacity="0.3" stroke-width="1.1"/><path d="M289.456 119.718L288.657 129.535L281.634 125.703Z" fill="#648896" fill-opacity="0.3"/><circle cx="172.960" cy="98.650" r="26" fill="none" stroke="#eedbb6" stroke-opacity=".6"/><circle cx="172.960" cy="215.950" r="26" fill="none" stroke="#83d6d1" stroke-opacity=".6"/><circle cx="121.083" cy="98.650" r="8" fill="#eedbb6" fill-opacity=".09"/><circle cx="121.083" cy="98.650" r="4" fill="#eedbb6"/><circle cx="123.280" cy="170.420" r="8" fill="#83d6d1" fill-opacity=".09"/><circle cx="123.280" cy="170.420" r="4" fill="#83d6d1"/><svg x="22.969599999999993" y="76.65" width="44" height="44" viewBox="0 0 48 48" aria-hidden="true" xmlns="http://www.w3.org/2000/svg"><circle cx="24.000" cy="24.000" r="11" fill="#eedbb6" stroke="#eedbb6" stroke-width="0.7" opacity="1" stroke-linejoin="round"/></svg><svg x="22.969599999999993" y="193.95000000000002" width="44" height="44" viewBox="0 0 48 48" aria-hidden="true" xmlns="http://www.w3.org/2000/svg"><rect x="13.000" y="13.000" width="22" height="22" rx="2.5" fill="#83d6d1" stroke="#83d6d1" stroke-width="0.7" opacity="1" stroke-linejoin="round"/></svg><svg x="22.969599999999993" y="311.25000000000006" width="44" height="44" viewBox="0 0 48 48" aria-hidden="true" xmlns="http://www.w3.org/2000/svg"><path d="M24.000 11.350L35.000 32.800L13.000 32.800Z" fill="#b7a4e8" stroke="#b7a4e8" stroke-width="0.7" opacity="1" stroke-linejoin="round"/></svg><svg x="150.95999999999998" y="76.65" width="44" height="44" viewBox="0 0 48 48" aria-hidden="true" xmlns="http://www.w3.org/2000/svg"><circle cx="24.000" cy="24.000" r="11" fill="#eedbb6" stroke="#eedbb6" stroke-width="0.7" opacity="1" stroke-linejoin="round"/></svg><svg x="150.95999999999998" y="193.95000000000002" width="44" height="44" viewBox="0 0 48 48" aria-hidden="true" xmlns="http://www.w3.org/2000/svg"><rect x="13.000" y="13.000" width="22" height="22" rx="2.5" fill="#83d6d1" stroke="#83d6d1" stroke-width="0.7" opacity="1" stroke-linejoin="round"/></svg><svg x="150.95999999999998" y="311.25000000000006" width="44" height="44" viewBox="0 0 48 48" aria-hidden="true" xmlns="http://www.w3.org/2000/svg"><path d="M24.000 11.350L35.000 32.800L13.000 32.800Z" fill="#b7a4e8" stroke="#b7a4e8" stroke-width="0.7" opacity="1" stroke-linejoin="round"/></svg><svg x="278.95039999999995" y="76.65" width="44" height="44" viewBox="0 0 48 48" aria-hidden="true" xmlns="http://www.w3.org/2000/svg"><circle cx="24.000" cy="24.000" r="11" fill="#eedbb6" stroke="#eedbb6" stroke-width="0.7" opacity="1" stroke-linejoin="round"/></svg><svg x="278.95039999999995" y="193.95000000000002" width="44" height="44" viewBox="0 0 48 48" aria-hidden="true" xmlns="http://www.w3.org/2000/svg"><rect x="13.000" y="13.000" width="22" height="22" rx="2.5" fill="#83d6d1" stroke="#83d6d1" stroke-width="0.7" opacity="1" stroke-linejoin="round"/></svg><svg x="278.95039999999995" y="311.25000000000006" width="44" height="44" viewBox="0 0 48 48" aria-hidden="true" xmlns="http://www.w3.org/2000/svg"><path d="M24.000 11.350L35.000 32.800L13.000 32.800Z" fill="#b7a4e8" stroke="#b7a4e8" stroke-width="0.7" opacity="1" stroke-linejoin="round"/></svg><svg x="489.28" y="167" width="44" height="44" viewBox="0 0 48 48" aria-hidden="true" xmlns="http://www.w3.org/2000/svg"><rect x="3" y="3" width="42" height="42" rx="8" fill="#83d6d1" fill-opacity="0.025" stroke="#648896" stroke-opacity="0.22"/></svg><svg x="541.28" y="167" width="44" height="44" viewBox="0 0 48 48" aria-hidden="true" xmlns="http://www.w3.org/2000/svg"><rect x="3" y="3" width="42" height="42" rx="8" fill="#83d6d1" fill-opacity="0.025" stroke="#648896" stroke-opacity="0.22"/></svg><svg x="593.28" y="167" width="44" height="44" viewBox="0 0 48 48" aria-hidden="true" xmlns="http://www.w3.org/2000/svg"><rect x="3" y="3" width="42" height="42" rx="8" fill="#83d6d1" fill-opacity="0.025" stroke="#648896" stroke-opacity="0.22"/><path d="M24.000 17.100L30.000 28.800L18.000 28.800Z" fill="#b7a4e8" stroke="#b7a4e8" stroke-width="0.7" opacity="1" stroke-linejoin="round"/></svg><svg x="489.28" y="219" width="44" height="44" viewBox="0 0 48 48" aria-hidden="true" xmlns="http://www.w3.org/2000/svg"><rect x="3" y="3" width="42" height="42" rx="8" fill="#83d6d1" fill-opacity="0.025" stroke="#648896" stroke-opacity="0.22"/></svg><svg x="541.28" y="219" width="44" height="44" viewBox="0 0 48 48" aria-hidden="true" xmlns="http://www.w3.org/2000/svg"><rect x="3" y="3" width="42" height="42" rx="8" fill="#83d6d1" fill-opacity="0.025" stroke="#648896" stroke-opacity="0.22"/></svg><svg x="593.28" y="219" width="44" height="44" viewBox="0 0 48 48" aria-hidden="true" xmlns="http://www.w3.org/2000/svg"><rect x="3" y="3" width="42" height="42" rx="8" fill="#83d6d1" fill-opacity="0.025" stroke="#648896" stroke-opacity="0.22"/></svg><svg x="489.28" y="271" width="44" height="44" viewBox="0 0 48 48" aria-hidden="true" xmlns="http://www.w3.org/2000/svg"><rect x="3" y="3" width="42" height="42" rx="8" fill="#83d6d1" fill-opacity="0.025" stroke="#eedbb6" stroke-opacity="0.85"/><circle cx="18.000" cy="24.000" r="4.2" fill="#eedbb6" stroke="#eedbb6" stroke-width="0.7" opacity="1" stroke-linejoin="round"/><rect x="25.800" y="19.800" width="8.4" height="8.4" rx="2.5" fill="#83d6d1" stroke="#83d6d1" stroke-width="0.7" opacity="1" stroke-linejoin="round"/></svg><svg x="541.28" y="271" width="44" height="44" viewBox="0 0 48 48" aria-hidden="true" xmlns="http://www.w3.org/2000/svg"><rect x="3" y="3" width="42" height="42" rx="8" fill="#83d6d1" fill-opacity="0.025" stroke="#648896" stroke-opacity="0.22"/><rect x="18.000" y="18.000" width="12" height="12" rx="2.5" fill="#83d6d1" stroke="#83d6d1" stroke-width="0.7" opacity="1" stroke-linejoin="round"/></svg><svg x="593.28" y="271" width="44" height="44" viewBox="0 0 48 48" aria-hidden="true" xmlns="http://www.w3.org/2000/svg"><rect x="3" y="3" width="42" height="42" rx="8" fill="#83d6d1" fill-opacity="0.025" stroke="#648896" stroke-opacity="0.22"/></svg><svg x="306" y="438" width="44" height="44" viewBox="0 0 48 48" aria-hidden="true" xmlns="http://www.w3.org/2000/svg"><circle cx="14.000" cy="16.000" r="4" fill="#eedbb6" stroke="#eedbb6" stroke-width="0.7" opacity="1" stroke-linejoin="round"/><rect x="28.000" y="12.000" width="8" height="8" rx="2.5" fill="#83d6d1" stroke="#83d6d1" stroke-width="0.7" opacity="1" stroke-linejoin="round"/><path d="M24.000 28.400L28.000 36.200L20.000 36.200Z" fill="#b7a4e8" stroke="#b7a4e8" stroke-width="0.7" opacity="1" stroke-linejoin="round"/></svg><svg x="386" y="438" width="44" height="44" viewBox="0 0 48 48" aria-hidden="true" xmlns="http://www.w3.org/2000/svg"><rect x="8" y="10" width="12" height="12" rx="3" fill="#83d6d1" opacity=".2"/><rect x="25" y="10" width="12" height="12" rx="3" fill="#83d6d1" opacity=".45"/><rect x="8" y="27" width="12" height="12" rx="3" fill="#83d6d1" opacity=".65"/><rect x="25" y="27" width="12" height="12" rx="3" fill="#83d6d1"/></svg></svg>